<svg width="14" height="14" viewBox="0 0 14 14" fill="none" xmlns="http://www.w3.org/2000/svg">
<path d="M10.0041 12.7235C8.88723 12.7235 7.77039 12.7235 6.65036 12.7235C5.49204 12.7235 4.33372 12.7426 3.17539 12.7235H3.1722C3.15625 12.7235 3.14348 12.7235 3.12753 12.7235C3.05414 12.7171 3.07009 12.7203 3.16582 12.733C3.16582 12.7362 3.07647 12.7139 3.08285 12.7171C3.05095 12.7107 3.01265 12.6884 2.98074 12.6884C2.90416 12.682 3.10838 12.7618 2.9967 12.6948C2.97436 12.682 2.94883 12.6692 2.92331 12.6533C2.78929 12.5735 2.91373 12.6597 2.91692 12.6565C2.91373 12.6565 2.76376 12.5224 2.77014 12.5097C2.77652 12.5001 2.84672 12.6373 2.78609 12.5224C2.77014 12.4905 2.75099 12.4618 2.73504 12.4331C2.67441 12.3246 2.75738 12.4682 2.7478 12.4714C2.74142 12.4714 2.7127 12.3597 2.70951 12.3501C2.70313 12.3246 2.70313 12.2895 2.69356 12.2672C2.7478 12.4108 2.70313 12.3246 2.70313 12.2608C2.70313 12.1906 2.70313 12.1204 2.70313 12.0502C2.70313 11.5747 2.70313 11.1025 2.70313 10.627C2.70313 9.03471 2.70313 7.44561 2.70313 5.85331C2.70313 4.78114 2.72866 3.7026 2.70313 2.63043C2.70313 2.61447 2.70313 2.59533 2.70313 2.57937C2.48933 2.79317 2.27873 3.00377 2.06493 3.21757C3.08605 3.21757 4.10397 3.21757 5.12508 3.21757C6.74928 3.21757 8.37349 3.21757 9.9945 3.21757C10.3647 3.21757 10.7348 3.21757 11.105 3.21757C10.8912 3.00377 10.6806 2.79317 10.4668 2.57937C10.4668 3.81428 10.4668 5.04919 10.4668 6.28409C10.4668 8.05508 10.4668 9.82607 10.4668 11.5971C10.4668 11.8013 10.4668 12.0087 10.4668 12.2129C10.4668 12.2289 10.4668 12.2416 10.4668 12.2576C10.4668 12.2735 10.4668 12.2927 10.4668 12.3055C10.47 12.4522 10.5051 12.1682 10.47 12.3086C10.4668 12.3246 10.4349 12.4746 10.4253 12.4714C10.4349 12.4459 10.4476 12.4203 10.4572 12.398C10.4444 12.4235 10.4317 12.449 10.4189 12.4714C10.4157 12.4778 10.3583 12.5799 10.3519 12.5767C10.3678 12.5544 10.3838 12.5352 10.3998 12.5129C10.3806 12.5352 10.3647 12.5544 10.3455 12.5735C10.3264 12.5926 10.3072 12.6118 10.2849 12.6309C10.2338 12.6756 10.2434 12.666 10.3168 12.6086C10.32 12.615 10.2211 12.6692 10.2115 12.6756C10.186 12.6884 10.1636 12.7011 10.1381 12.7139C10.2274 12.6788 10.237 12.6724 10.1732 12.6948C10.1317 12.7043 10.0902 12.7171 10.0487 12.7267C9.97854 12.7394 9.99131 12.7362 10.0902 12.7203C10.0647 12.7235 10.036 12.7235 10.0041 12.7235C9.66902 12.7299 9.34992 13.0139 9.36588 13.3617C9.38183 13.7031 9.64668 14.0062 10.0041 13.9999C10.9646 13.9807 11.7304 13.2181 11.7463 12.2576C11.7495 12.1427 11.7463 12.0246 11.7463 11.9098C11.7463 11.2078 11.7463 10.5057 11.7463 9.80373C11.7463 7.86681 11.7463 5.92989 11.7463 3.99297C11.7463 3.52071 11.7463 3.04845 11.7463 2.57618C11.7463 2.23156 11.4528 1.93799 11.1081 1.93799C10.087 1.93799 9.06912 1.93799 8.04801 1.93799C6.4238 1.93799 4.7996 1.93799 3.17858 1.93799C2.80843 1.93799 2.43828 1.93799 2.06813 1.93799C1.7235 1.93799 1.42993 2.23156 1.42993 2.57618C1.42993 3.49837 1.42993 4.42056 1.42993 5.34595C1.42993 6.97653 1.42993 8.61031 1.42993 10.2409C1.42993 10.7929 1.42993 11.345 1.42993 11.897C1.42993 12.0087 1.42993 12.1236 1.42993 12.2353C1.43312 12.749 1.64692 13.2564 2.04898 13.585C2.39999 13.869 2.80205 13.9999 3.25198 13.9999C3.44024 13.9999 3.62851 13.9999 3.81359 13.9999C4.52836 13.9999 5.23995 13.9999 5.95473 13.9999C7.27898 13.9999 8.60324 13.9999 9.92749 13.9999C9.95302 13.9999 9.97855 13.9999 10.0041 13.9999C10.3391 13.9999 10.6582 13.7063 10.6423 13.3617C10.6295 13.017 10.3647 12.7235 10.0041 12.7235Z" fill="#FF5A5A"/>
<path d="M0.638768 3.18929C1.03445 3.18929 1.43013 3.18929 1.82581 3.18929C2.77034 3.18929 3.71487 3.18929 4.66258 3.18929C5.81133 3.18929 6.96008 3.18929 8.10883 3.18929C9.09803 3.18929 10.0872 3.18929 11.0764 3.18929C11.5583 3.18929 12.0433 3.20205 12.5251 3.18929C12.5315 3.18929 12.5379 3.18929 12.5443 3.18929C12.8793 3.18929 13.1984 2.89572 13.1825 2.55109C13.1665 2.20647 12.9017 1.9129 12.5443 1.9129C12.1486 1.9129 11.7529 1.9129 11.3572 1.9129C10.4127 1.9129 9.46819 1.9129 8.52047 1.9129C7.37172 1.9129 6.22297 1.9129 5.07422 1.9129C4.08502 1.9129 3.09582 1.9129 2.10662 1.9129C1.62478 1.9129 1.13975 1.90014 0.657914 1.9129C0.651532 1.9129 0.64515 1.9129 0.638768 1.9129C0.303716 1.9129 -0.0153807 2.20647 0.000574198 2.55109C0.0133381 2.89572 0.278189 3.18929 0.638768 3.18929Z" fill="#FF5A5A"/>
<path d="M5.00411 2.54781C5.00411 2.3404 5.00411 2.1298 5.00411 1.92238C5.00411 1.79474 5.00411 1.66711 5.00411 1.53947C5.00411 1.50437 5.00411 1.47246 5.00411 1.43736C5.00411 1.43416 5.00411 1.42778 5.00411 1.42459C5.00411 1.39906 5.02006 1.33844 4.99773 1.4214C4.9722 1.5267 5.0073 1.38949 5.01049 1.37992C5.03283 1.27462 4.94986 1.46607 5.01049 1.37673C5.0073 1.38311 5.05197 1.30333 5.05516 1.30653C5.06793 1.31291 4.96263 1.39906 5.02006 1.35439C5.03921 1.33844 5.06474 1.3161 5.0775 1.29695C5.12217 1.23952 5.03602 1.34482 5.02964 1.33205C5.02964 1.32886 5.0775 1.30014 5.08388 1.30014C5.19557 1.23952 5.09346 1.31291 5.06474 1.30333C5.07431 1.30653 5.26577 1.24909 5.1477 1.27781C5.06474 1.30014 5.12537 1.281 5.15408 1.28419C5.16366 1.28419 5.17642 1.28419 5.18918 1.28419C5.35192 1.28419 5.51785 1.28419 5.68059 1.28419C6.2454 1.28419 6.80701 1.28419 7.37181 1.28419C7.57603 1.28419 7.78025 1.28419 7.98129 1.28419C8.01958 1.28419 8.05787 1.28738 8.09297 1.28419C8.09616 1.28419 8.13764 1.28738 8.14083 1.28419C8.11211 1.31291 8.01 1.25547 8.09935 1.281C8.1185 1.28738 8.14083 1.29376 8.15998 1.29695C8.23975 1.30972 8.06106 1.23313 8.12488 1.281C8.14083 1.29376 8.16317 1.30333 8.17912 1.30972C8.19508 1.31929 8.26209 1.34482 8.18232 1.30653C8.10254 1.26823 8.1887 1.31929 8.21103 1.33844C8.23656 1.36077 8.24294 1.40225 8.21423 1.33844C8.17274 1.24909 8.22061 1.35758 8.23337 1.37673C8.26528 1.42459 8.22699 1.41821 8.23656 1.37673C8.21742 1.32567 8.21423 1.32567 8.23337 1.37992C8.23656 1.39268 8.23975 1.40864 8.24294 1.4214C8.27804 1.53628 8.24614 1.29695 8.23975 1.42778C8.23975 1.43736 8.23975 1.44693 8.23975 1.45331C8.23975 1.57457 8.23975 1.69582 8.23975 1.81389C8.23975 2.05959 8.23975 2.3053 8.23975 2.551C8.23975 2.88606 8.53332 3.20515 8.87795 3.1892C9.22257 3.17324 9.51614 2.90839 9.51614 2.551C9.51614 2.31487 9.51614 2.08193 9.51614 1.8458C9.51614 1.51713 9.53529 1.19165 9.40446 0.882126C9.1779 0.346043 8.66734 0.0141821 8.08659 0.00141821C7.93342 -0.00177276 7.78025 0.00141821 7.62709 0.00141821C7.0208 0.00141821 6.41452 0.00141821 5.80823 0.00141821C5.19876 0.00141821 4.55418 -0.0496374 4.10425 0.464109C3.86493 0.735342 3.73729 1.06401 3.73091 1.42459C3.72772 1.52351 3.73091 1.62562 3.73091 1.72454C3.73091 1.99897 3.73091 2.27339 3.73091 2.54781C3.73091 2.88287 4.02448 3.20196 4.3691 3.18601C4.71054 3.17324 5.00411 2.90839 5.00411 2.54781Z" fill="#FF5A5A"/>
<path d="M4.54126 5.52524C4.54126 6.94842 4.54126 8.37478 4.54126 9.79795C4.54126 10.0022 4.54126 10.2064 4.54126 10.4138C4.54126 10.7489 4.83483 11.068 5.17945 11.052C5.52408 11.0361 5.81765 10.7712 5.81765 10.4138C5.81765 8.99064 5.81765 7.56427 5.81765 6.1411C5.81765 5.93688 5.81765 5.73266 5.81765 5.52524C5.81765 5.19019 5.52408 4.87109 5.17945 4.88705C4.83483 4.903 4.54126 5.16785 4.54126 5.52524Z" fill="#FF5A5A"/>
<path d="M7.36182 5.52524C7.36182 6.94842 7.36182 8.37478 7.36182 9.79795C7.36182 10.0022 7.36182 10.2064 7.36182 10.4138C7.36182 10.7489 7.65539 11.068 8.00001 11.052C8.34464 11.0361 8.6382 10.7712 8.6382 10.4138C8.6382 8.99064 8.6382 7.56427 8.6382 6.1411C8.6382 5.93688 8.6382 5.73266 8.6382 5.52524C8.6382 5.19019 8.34464 4.87109 8.00001 4.88705C7.65219 4.903 7.36182 5.16785 7.36182 5.52524Z" fill="#FF5A5A"/>
</svg>
